<mxfile host="app.diagrams.net" modified="2024-03-01T13:42:53.730Z" agent="Mozilla/5.0 (Windows NT 10.0; Win64; x64) AppleWebKit/537.36 (KHTML, like Gecko) Chrome/122.0.0.0 Safari/537.36" etag="dSuTJA2yqDTKc8jogeZW" version="23.1.8" type="device">
  <diagram name="‫עמוד-1‬" id="_AxgfXg_9i0E4Z0TuOVN">
    <mxGraphModel dx="1123" dy="2037" grid="1" gridSize="10" guides="1" tooltips="1" connect="1" arrows="1" fold="1" page="1" pageScale="1" pageWidth="827" pageHeight="1169" math="0" shadow="0">
      <root>
        <mxCell id="0" />
        <mxCell id="1" parent="0" />
        <mxCell id="UxLnfqudutofeIfkHDjk-3" value="ex.1" style="text;strokeColor=#d6b656;fillColor=#fff2cc;align=left;verticalAlign=middle;spacingLeft=4;spacingRight=4;overflow=hidden;points=[[0,0.5],[1,0.5]];portConstraint=eastwest;rotatable=0;whiteSpace=wrap;html=1;" vertex="1" parent="1">
          <mxGeometry x="50" y="-1075" width="80" height="30" as="geometry" />
        </mxCell>
        <mxCell id="UxLnfqudutofeIfkHDjk-14" style="edgeStyle=orthogonalEdgeStyle;rounded=0;orthogonalLoop=1;jettySize=auto;html=1;entryX=0.5;entryY=0;entryDx=0;entryDy=0;" edge="1" parent="1" source="UxLnfqudutofeIfkHDjk-4" target="UxLnfqudutofeIfkHDjk-6">
          <mxGeometry relative="1" as="geometry" />
        </mxCell>
        <mxCell id="UxLnfqudutofeIfkHDjk-4" value="start" style="strokeWidth=2;html=1;shape=mxgraph.flowchart.terminator;whiteSpace=wrap;" vertex="1" parent="1">
          <mxGeometry x="90" y="-1045" width="70" height="40" as="geometry" />
        </mxCell>
        <mxCell id="UxLnfqudutofeIfkHDjk-5" value="" style="verticalLabelPosition=bottom;verticalAlign=top;html=1;shape=card;whiteSpace=wrap;size=20;arcSize=12;" vertex="1" parent="1">
          <mxGeometry x="100" y="-970" width="50" height="40" as="geometry" />
        </mxCell>
        <mxCell id="UxLnfqudutofeIfkHDjk-16" style="edgeStyle=orthogonalEdgeStyle;rounded=0;orthogonalLoop=1;jettySize=auto;html=1;entryX=0.5;entryY=0;entryDx=0;entryDy=0;" edge="1" parent="1" source="UxLnfqudutofeIfkHDjk-6" target="UxLnfqudutofeIfkHDjk-8">
          <mxGeometry relative="1" as="geometry" />
        </mxCell>
        <mxCell id="UxLnfqudutofeIfkHDjk-6" value="a" style="text;html=1;align=center;verticalAlign=middle;whiteSpace=wrap;rounded=0;" vertex="1" parent="1">
          <mxGeometry x="95" y="-965" width="60" height="30" as="geometry" />
        </mxCell>
        <mxCell id="UxLnfqudutofeIfkHDjk-7" value="" style="shape=document;whiteSpace=wrap;html=1;boundedLbl=1;" vertex="1" parent="1">
          <mxGeometry x="100" y="-910" width="50" height="40" as="geometry" />
        </mxCell>
        <mxCell id="UxLnfqudutofeIfkHDjk-8" value="a" style="text;html=1;align=center;verticalAlign=middle;whiteSpace=wrap;rounded=0;" vertex="1" parent="1">
          <mxGeometry x="95" y="-910" width="60" height="30" as="geometry" />
        </mxCell>
        <mxCell id="UxLnfqudutofeIfkHDjk-9" value="stop" style="strokeWidth=2;html=1;shape=mxgraph.flowchart.terminator;whiteSpace=wrap;" vertex="1" parent="1">
          <mxGeometry x="90" y="-850" width="70" height="40" as="geometry" />
        </mxCell>
        <mxCell id="UxLnfqudutofeIfkHDjk-17" style="edgeStyle=orthogonalEdgeStyle;rounded=0;orthogonalLoop=1;jettySize=auto;html=1;entryX=0.5;entryY=0;entryDx=0;entryDy=0;entryPerimeter=0;" edge="1" parent="1" source="UxLnfqudutofeIfkHDjk-8" target="UxLnfqudutofeIfkHDjk-9">
          <mxGeometry relative="1" as="geometry" />
        </mxCell>
        <mxCell id="UxLnfqudutofeIfkHDjk-18" value="ex.2" style="text;strokeColor=#d6b656;fillColor=#fff2cc;align=left;verticalAlign=middle;spacingLeft=4;spacingRight=4;overflow=hidden;points=[[0,0.5],[1,0.5]];portConstraint=eastwest;rotatable=0;whiteSpace=wrap;html=1;" vertex="1" parent="1">
          <mxGeometry x="220" y="-1075" width="80" height="30" as="geometry" />
        </mxCell>
        <mxCell id="UxLnfqudutofeIfkHDjk-19" value="" style="endArrow=none;dashed=1;html=1;rounded=0;" edge="1" parent="1">
          <mxGeometry width="50" height="50" relative="1" as="geometry">
            <mxPoint x="200" y="-1080" as="sourcePoint" />
            <mxPoint x="200" y="-360" as="targetPoint" />
          </mxGeometry>
        </mxCell>
        <mxCell id="UxLnfqudutofeIfkHDjk-20" value="&lt;font style=&quot;font-size: 23px;&quot;&gt;&lt;b&gt;page 11&lt;/b&gt;&lt;/font&gt;" style="text;html=1;align=center;verticalAlign=middle;whiteSpace=wrap;rounded=0;fillColor=#e1d5e7;strokeColor=#9673a6;" vertex="1" parent="1">
          <mxGeometry x="30" y="-1110" width="100" height="30" as="geometry" />
        </mxCell>
        <mxCell id="UxLnfqudutofeIfkHDjk-22" style="edgeStyle=orthogonalEdgeStyle;rounded=0;orthogonalLoop=1;jettySize=auto;html=1;entryX=0.5;entryY=0;entryDx=0;entryDy=0;" edge="1" parent="1" source="UxLnfqudutofeIfkHDjk-23" target="UxLnfqudutofeIfkHDjk-26">
          <mxGeometry relative="1" as="geometry" />
        </mxCell>
        <mxCell id="UxLnfqudutofeIfkHDjk-23" value="start" style="strokeWidth=2;html=1;shape=mxgraph.flowchart.terminator;whiteSpace=wrap;" vertex="1" parent="1">
          <mxGeometry x="280" y="-1080" width="70" height="40" as="geometry" />
        </mxCell>
        <mxCell id="UxLnfqudutofeIfkHDjk-24" value="" style="verticalLabelPosition=bottom;verticalAlign=top;html=1;shape=card;whiteSpace=wrap;size=20;arcSize=12;" vertex="1" parent="1">
          <mxGeometry x="290" y="-1005" width="50" height="40" as="geometry" />
        </mxCell>
        <mxCell id="UxLnfqudutofeIfkHDjk-33" style="edgeStyle=orthogonalEdgeStyle;rounded=0;orthogonalLoop=1;jettySize=auto;html=1;entryX=0.5;entryY=0;entryDx=0;entryDy=0;" edge="1" parent="1" source="UxLnfqudutofeIfkHDjk-26" target="UxLnfqudutofeIfkHDjk-32">
          <mxGeometry relative="1" as="geometry" />
        </mxCell>
        <mxCell id="UxLnfqudutofeIfkHDjk-26" value="n" style="text;html=1;align=center;verticalAlign=middle;whiteSpace=wrap;rounded=0;" vertex="1" parent="1">
          <mxGeometry x="285" y="-1000" width="60" height="30" as="geometry" />
        </mxCell>
        <mxCell id="UxLnfqudutofeIfkHDjk-27" value="" style="shape=document;whiteSpace=wrap;html=1;boundedLbl=1;" vertex="1" parent="1">
          <mxGeometry x="290" y="-860" width="50" height="40" as="geometry" />
        </mxCell>
        <mxCell id="UxLnfqudutofeIfkHDjk-28" value="n" style="text;html=1;align=center;verticalAlign=middle;whiteSpace=wrap;rounded=0;" vertex="1" parent="1">
          <mxGeometry x="285" y="-860" width="60" height="30" as="geometry" />
        </mxCell>
        <mxCell id="UxLnfqudutofeIfkHDjk-29" value="stop" style="strokeWidth=2;html=1;shape=mxgraph.flowchart.terminator;whiteSpace=wrap;" vertex="1" parent="1">
          <mxGeometry x="280" y="-800" width="70" height="40" as="geometry" />
        </mxCell>
        <mxCell id="UxLnfqudutofeIfkHDjk-30" style="edgeStyle=orthogonalEdgeStyle;rounded=0;orthogonalLoop=1;jettySize=auto;html=1;entryX=0.5;entryY=0;entryDx=0;entryDy=0;entryPerimeter=0;" edge="1" parent="1" source="UxLnfqudutofeIfkHDjk-28" target="UxLnfqudutofeIfkHDjk-29">
          <mxGeometry relative="1" as="geometry" />
        </mxCell>
        <mxCell id="UxLnfqudutofeIfkHDjk-31" value="" style="verticalLabelPosition=bottom;verticalAlign=top;html=1;shape=card;whiteSpace=wrap;size=20;arcSize=12;" vertex="1" parent="1">
          <mxGeometry x="290" y="-935" width="50" height="40" as="geometry" />
        </mxCell>
        <mxCell id="UxLnfqudutofeIfkHDjk-34" style="edgeStyle=orthogonalEdgeStyle;rounded=0;orthogonalLoop=1;jettySize=auto;html=1;entryX=0.5;entryY=0;entryDx=0;entryDy=0;" edge="1" parent="1" source="UxLnfqudutofeIfkHDjk-32" target="UxLnfqudutofeIfkHDjk-28">
          <mxGeometry relative="1" as="geometry" />
        </mxCell>
        <mxCell id="UxLnfqudutofeIfkHDjk-32" value="n" style="text;html=1;align=center;verticalAlign=middle;whiteSpace=wrap;rounded=0;" vertex="1" parent="1">
          <mxGeometry x="285" y="-930" width="60" height="30" as="geometry" />
        </mxCell>
        <mxCell id="UxLnfqudutofeIfkHDjk-35" value="קלט של מספר במשתנה" style="rounded=1;whiteSpace=wrap;html=1;" vertex="1" parent="1">
          <mxGeometry x="380" y="-1030" width="80" height="60" as="geometry" />
        </mxCell>
        <mxCell id="UxLnfqudutofeIfkHDjk-37" value="החלפת המשתנה בקלט חדש" style="rounded=1;whiteSpace=wrap;html=1;" vertex="1" parent="1">
          <mxGeometry x="380" y="-940" width="80" height="60" as="geometry" />
        </mxCell>
        <mxCell id="UxLnfqudutofeIfkHDjk-38" value="הדפסת הקלט החדש" style="rounded=1;whiteSpace=wrap;html=1;" vertex="1" parent="1">
          <mxGeometry x="380" y="-860" width="80" height="40" as="geometry" />
        </mxCell>
        <mxCell id="UxLnfqudutofeIfkHDjk-39" value="10" style="rounded=1;whiteSpace=wrap;html=1;" vertex="1" parent="1">
          <mxGeometry x="470" y="-1030" width="50" height="60" as="geometry" />
        </mxCell>
        <mxCell id="UxLnfqudutofeIfkHDjk-40" value="5" style="rounded=1;whiteSpace=wrap;html=1;" vertex="1" parent="1">
          <mxGeometry x="470" y="-940" width="50" height="60" as="geometry" />
        </mxCell>
        <mxCell id="UxLnfqudutofeIfkHDjk-41" value="5" style="rounded=1;whiteSpace=wrap;html=1;" vertex="1" parent="1">
          <mxGeometry x="470" y="-860" width="50" height="40" as="geometry" />
        </mxCell>
        <mxCell id="UxLnfqudutofeIfkHDjk-42" value="" style="endArrow=none;dashed=1;html=1;rounded=0;" edge="1" parent="1">
          <mxGeometry width="50" height="50" relative="1" as="geometry">
            <mxPoint x="560" y="-1080" as="sourcePoint" />
            <mxPoint x="560" y="-720" as="targetPoint" />
          </mxGeometry>
        </mxCell>
        <mxCell id="UxLnfqudutofeIfkHDjk-43" value="ex.3" style="text;strokeColor=#d6b656;fillColor=#fff2cc;align=left;verticalAlign=middle;spacingLeft=4;spacingRight=4;overflow=hidden;points=[[0,0.5],[1,0.5]];portConstraint=eastwest;rotatable=0;whiteSpace=wrap;html=1;" vertex="1" parent="1">
          <mxGeometry x="570" y="-1080" width="80" height="30" as="geometry" />
        </mxCell>
        <mxCell id="UxLnfqudutofeIfkHDjk-44" style="edgeStyle=orthogonalEdgeStyle;rounded=0;orthogonalLoop=1;jettySize=auto;html=1;entryX=0.5;entryY=0;entryDx=0;entryDy=0;" edge="1" parent="1" source="UxLnfqudutofeIfkHDjk-45" target="UxLnfqudutofeIfkHDjk-48">
          <mxGeometry relative="1" as="geometry" />
        </mxCell>
        <mxCell id="UxLnfqudutofeIfkHDjk-45" value="start" style="strokeWidth=2;html=1;shape=mxgraph.flowchart.terminator;whiteSpace=wrap;" vertex="1" parent="1">
          <mxGeometry x="620" y="-1075" width="70" height="40" as="geometry" />
        </mxCell>
        <mxCell id="UxLnfqudutofeIfkHDjk-46" value="" style="verticalLabelPosition=bottom;verticalAlign=top;html=1;shape=card;whiteSpace=wrap;size=20;arcSize=12;" vertex="1" parent="1">
          <mxGeometry x="630" y="-1000" width="50" height="40" as="geometry" />
        </mxCell>
        <mxCell id="UxLnfqudutofeIfkHDjk-47" style="edgeStyle=orthogonalEdgeStyle;rounded=0;orthogonalLoop=1;jettySize=auto;html=1;entryX=0.5;entryY=0;entryDx=0;entryDy=0;" edge="1" parent="1" source="UxLnfqudutofeIfkHDjk-48" target="UxLnfqudutofeIfkHDjk-55">
          <mxGeometry relative="1" as="geometry" />
        </mxCell>
        <mxCell id="UxLnfqudutofeIfkHDjk-48" value="a" style="text;html=1;align=center;verticalAlign=middle;whiteSpace=wrap;rounded=0;" vertex="1" parent="1">
          <mxGeometry x="625" y="-995" width="60" height="30" as="geometry" />
        </mxCell>
        <mxCell id="UxLnfqudutofeIfkHDjk-49" value="" style="shape=document;whiteSpace=wrap;html=1;boundedLbl=1;" vertex="1" parent="1">
          <mxGeometry x="630" y="-855" width="50" height="40" as="geometry" />
        </mxCell>
        <mxCell id="UxLnfqudutofeIfkHDjk-50" value="a,b" style="text;html=1;align=center;verticalAlign=middle;whiteSpace=wrap;rounded=0;" vertex="1" parent="1">
          <mxGeometry x="625" y="-855" width="60" height="30" as="geometry" />
        </mxCell>
        <mxCell id="UxLnfqudutofeIfkHDjk-51" value="stop" style="strokeWidth=2;html=1;shape=mxgraph.flowchart.terminator;whiteSpace=wrap;" vertex="1" parent="1">
          <mxGeometry x="620" y="-795" width="70" height="40" as="geometry" />
        </mxCell>
        <mxCell id="UxLnfqudutofeIfkHDjk-52" style="edgeStyle=orthogonalEdgeStyle;rounded=0;orthogonalLoop=1;jettySize=auto;html=1;entryX=0.5;entryY=0;entryDx=0;entryDy=0;entryPerimeter=0;" edge="1" parent="1" source="UxLnfqudutofeIfkHDjk-50" target="UxLnfqudutofeIfkHDjk-51">
          <mxGeometry relative="1" as="geometry" />
        </mxCell>
        <mxCell id="UxLnfqudutofeIfkHDjk-53" value="" style="verticalLabelPosition=bottom;verticalAlign=top;html=1;shape=card;whiteSpace=wrap;size=20;arcSize=12;" vertex="1" parent="1">
          <mxGeometry x="630" y="-930" width="50" height="40" as="geometry" />
        </mxCell>
        <mxCell id="UxLnfqudutofeIfkHDjk-54" style="edgeStyle=orthogonalEdgeStyle;rounded=0;orthogonalLoop=1;jettySize=auto;html=1;entryX=0.5;entryY=0;entryDx=0;entryDy=0;" edge="1" parent="1" source="UxLnfqudutofeIfkHDjk-55" target="UxLnfqudutofeIfkHDjk-50">
          <mxGeometry relative="1" as="geometry" />
        </mxCell>
        <mxCell id="UxLnfqudutofeIfkHDjk-55" value="b" style="text;html=1;align=center;verticalAlign=middle;whiteSpace=wrap;rounded=0;" vertex="1" parent="1">
          <mxGeometry x="625" y="-925" width="60" height="30" as="geometry" />
        </mxCell>
        <mxCell id="UxLnfqudutofeIfkHDjk-56" value="" style="endArrow=none;dashed=1;html=1;rounded=0;" edge="1" parent="1">
          <mxGeometry width="50" height="50" relative="1" as="geometry">
            <mxPoint x="40" y="-720" as="sourcePoint" />
            <mxPoint x="741.5999755859375" y="-720" as="targetPoint" />
          </mxGeometry>
        </mxCell>
        <mxCell id="UxLnfqudutofeIfkHDjk-57" value="ex.4" style="text;strokeColor=#d6b656;fillColor=#fff2cc;align=left;verticalAlign=middle;spacingLeft=4;spacingRight=4;overflow=hidden;points=[[0,0.5],[1,0.5]];portConstraint=eastwest;rotatable=0;whiteSpace=wrap;html=1;" vertex="1" parent="1">
          <mxGeometry x="50" y="-710" width="80" height="30" as="geometry" />
        </mxCell>
        <mxCell id="UxLnfqudutofeIfkHDjk-58" style="edgeStyle=orthogonalEdgeStyle;rounded=0;orthogonalLoop=1;jettySize=auto;html=1;entryX=0.5;entryY=0;entryDx=0;entryDy=0;" edge="1" parent="1" source="UxLnfqudutofeIfkHDjk-59" target="UxLnfqudutofeIfkHDjk-62">
          <mxGeometry relative="1" as="geometry" />
        </mxCell>
        <mxCell id="UxLnfqudutofeIfkHDjk-59" value="start" style="strokeWidth=2;html=1;shape=mxgraph.flowchart.terminator;whiteSpace=wrap;" vertex="1" parent="1">
          <mxGeometry x="95" y="-710" width="70" height="40" as="geometry" />
        </mxCell>
        <mxCell id="UxLnfqudutofeIfkHDjk-60" value="" style="verticalLabelPosition=bottom;verticalAlign=top;html=1;shape=card;whiteSpace=wrap;size=20;arcSize=12;" vertex="1" parent="1">
          <mxGeometry x="105" y="-635" width="50" height="40" as="geometry" />
        </mxCell>
        <mxCell id="UxLnfqudutofeIfkHDjk-61" style="edgeStyle=orthogonalEdgeStyle;rounded=0;orthogonalLoop=1;jettySize=auto;html=1;entryX=0.5;entryY=0;entryDx=0;entryDy=0;" edge="1" parent="1" source="UxLnfqudutofeIfkHDjk-62" target="UxLnfqudutofeIfkHDjk-69">
          <mxGeometry relative="1" as="geometry" />
        </mxCell>
        <mxCell id="UxLnfqudutofeIfkHDjk-62" value="a" style="text;html=1;align=center;verticalAlign=middle;whiteSpace=wrap;rounded=0;" vertex="1" parent="1">
          <mxGeometry x="100" y="-630" width="60" height="30" as="geometry" />
        </mxCell>
        <mxCell id="UxLnfqudutofeIfkHDjk-63" value="" style="shape=document;whiteSpace=wrap;html=1;boundedLbl=1;" vertex="1" parent="1">
          <mxGeometry x="105" y="-490" width="50" height="40" as="geometry" />
        </mxCell>
        <mxCell id="UxLnfqudutofeIfkHDjk-64" value="b,a" style="text;html=1;align=center;verticalAlign=middle;whiteSpace=wrap;rounded=0;" vertex="1" parent="1">
          <mxGeometry x="100" y="-490" width="60" height="30" as="geometry" />
        </mxCell>
        <mxCell id="UxLnfqudutofeIfkHDjk-65" value="stop" style="strokeWidth=2;html=1;shape=mxgraph.flowchart.terminator;whiteSpace=wrap;" vertex="1" parent="1">
          <mxGeometry x="95" y="-430" width="70" height="40" as="geometry" />
        </mxCell>
        <mxCell id="UxLnfqudutofeIfkHDjk-66" style="edgeStyle=orthogonalEdgeStyle;rounded=0;orthogonalLoop=1;jettySize=auto;html=1;entryX=0.5;entryY=0;entryDx=0;entryDy=0;entryPerimeter=0;" edge="1" parent="1" source="UxLnfqudutofeIfkHDjk-64" target="UxLnfqudutofeIfkHDjk-65">
          <mxGeometry relative="1" as="geometry" />
        </mxCell>
        <mxCell id="UxLnfqudutofeIfkHDjk-67" value="" style="verticalLabelPosition=bottom;verticalAlign=top;html=1;shape=card;whiteSpace=wrap;size=20;arcSize=12;" vertex="1" parent="1">
          <mxGeometry x="105" y="-565" width="50" height="40" as="geometry" />
        </mxCell>
        <mxCell id="UxLnfqudutofeIfkHDjk-68" style="edgeStyle=orthogonalEdgeStyle;rounded=0;orthogonalLoop=1;jettySize=auto;html=1;entryX=0.5;entryY=0;entryDx=0;entryDy=0;" edge="1" parent="1" source="UxLnfqudutofeIfkHDjk-69" target="UxLnfqudutofeIfkHDjk-64">
          <mxGeometry relative="1" as="geometry" />
        </mxCell>
        <mxCell id="UxLnfqudutofeIfkHDjk-69" value="b" style="text;html=1;align=center;verticalAlign=middle;whiteSpace=wrap;rounded=0;" vertex="1" parent="1">
          <mxGeometry x="100" y="-560" width="60" height="30" as="geometry" />
        </mxCell>
        <mxCell id="UxLnfqudutofeIfkHDjk-70" value="ex.5" style="text;strokeColor=#d6b656;fillColor=#fff2cc;align=left;verticalAlign=middle;spacingLeft=4;spacingRight=4;overflow=hidden;points=[[0,0.5],[1,0.5]];portConstraint=eastwest;rotatable=0;whiteSpace=wrap;html=1;" vertex="1" parent="1">
          <mxGeometry x="220" y="-705" width="80" height="30" as="geometry" />
        </mxCell>
        <mxCell id="UxLnfqudutofeIfkHDjk-71" style="edgeStyle=orthogonalEdgeStyle;rounded=0;orthogonalLoop=1;jettySize=auto;html=1;entryX=0.5;entryY=0;entryDx=0;entryDy=0;" edge="1" parent="1" source="UxLnfqudutofeIfkHDjk-72" target="UxLnfqudutofeIfkHDjk-75">
          <mxGeometry relative="1" as="geometry" />
        </mxCell>
        <mxCell id="UxLnfqudutofeIfkHDjk-72" value="start" style="strokeWidth=2;html=1;shape=mxgraph.flowchart.terminator;whiteSpace=wrap;" vertex="1" parent="1">
          <mxGeometry x="280" y="-710" width="70" height="40" as="geometry" />
        </mxCell>
        <mxCell id="UxLnfqudutofeIfkHDjk-73" value="" style="verticalLabelPosition=bottom;verticalAlign=top;html=1;shape=card;whiteSpace=wrap;size=20;arcSize=12;" vertex="1" parent="1">
          <mxGeometry x="290" y="-635" width="50" height="40" as="geometry" />
        </mxCell>
        <mxCell id="UxLnfqudutofeIfkHDjk-74" style="edgeStyle=orthogonalEdgeStyle;rounded=0;orthogonalLoop=1;jettySize=auto;html=1;entryX=0.5;entryY=0;entryDx=0;entryDy=0;" edge="1" parent="1" source="UxLnfqudutofeIfkHDjk-75" target="UxLnfqudutofeIfkHDjk-82">
          <mxGeometry relative="1" as="geometry" />
        </mxCell>
        <mxCell id="UxLnfqudutofeIfkHDjk-75" value="a" style="text;html=1;align=center;verticalAlign=middle;whiteSpace=wrap;rounded=0;" vertex="1" parent="1">
          <mxGeometry x="285" y="-630" width="60" height="30" as="geometry" />
        </mxCell>
        <mxCell id="UxLnfqudutofeIfkHDjk-76" value="" style="shape=document;whiteSpace=wrap;html=1;boundedLbl=1;" vertex="1" parent="1">
          <mxGeometry x="290" y="-490" width="50" height="40" as="geometry" />
        </mxCell>
        <mxCell id="UxLnfqudutofeIfkHDjk-77" value="b" style="text;html=1;align=center;verticalAlign=middle;whiteSpace=wrap;rounded=0;" vertex="1" parent="1">
          <mxGeometry x="285" y="-490" width="60" height="30" as="geometry" />
        </mxCell>
        <mxCell id="UxLnfqudutofeIfkHDjk-78" value="stop" style="strokeWidth=2;html=1;shape=mxgraph.flowchart.terminator;whiteSpace=wrap;" vertex="1" parent="1">
          <mxGeometry x="280" y="-430" width="70" height="40" as="geometry" />
        </mxCell>
        <mxCell id="UxLnfqudutofeIfkHDjk-79" style="edgeStyle=orthogonalEdgeStyle;rounded=0;orthogonalLoop=1;jettySize=auto;html=1;entryX=0.5;entryY=0;entryDx=0;entryDy=0;entryPerimeter=0;" edge="1" parent="1" source="UxLnfqudutofeIfkHDjk-77" target="UxLnfqudutofeIfkHDjk-78">
          <mxGeometry relative="1" as="geometry" />
        </mxCell>
        <mxCell id="UxLnfqudutofeIfkHDjk-80" value="" style="verticalLabelPosition=bottom;verticalAlign=top;html=1;shape=card;whiteSpace=wrap;size=20;arcSize=12;" vertex="1" parent="1">
          <mxGeometry x="290" y="-565" width="50" height="40" as="geometry" />
        </mxCell>
        <mxCell id="UxLnfqudutofeIfkHDjk-81" style="edgeStyle=orthogonalEdgeStyle;rounded=0;orthogonalLoop=1;jettySize=auto;html=1;entryX=0.5;entryY=0;entryDx=0;entryDy=0;" edge="1" parent="1" source="UxLnfqudutofeIfkHDjk-82" target="UxLnfqudutofeIfkHDjk-77">
          <mxGeometry relative="1" as="geometry" />
        </mxCell>
        <mxCell id="UxLnfqudutofeIfkHDjk-82" value="b" style="text;html=1;align=center;verticalAlign=middle;whiteSpace=wrap;rounded=0;" vertex="1" parent="1">
          <mxGeometry x="285" y="-560" width="60" height="30" as="geometry" />
        </mxCell>
        <mxCell id="UxLnfqudutofeIfkHDjk-83" value="" style="endArrow=none;dashed=1;html=1;rounded=0;" edge="1" parent="1">
          <mxGeometry width="50" height="50" relative="1" as="geometry">
            <mxPoint x="390" y="-720" as="sourcePoint" />
            <mxPoint x="390" y="-360" as="targetPoint" />
          </mxGeometry>
        </mxCell>
        <mxCell id="UxLnfqudutofeIfkHDjk-84" value="ex.6" style="text;strokeColor=#d6b656;fillColor=#fff2cc;align=left;verticalAlign=middle;spacingLeft=4;spacingRight=4;overflow=hidden;points=[[0,0.5],[1,0.5]];portConstraint=eastwest;rotatable=0;whiteSpace=wrap;html=1;" vertex="1" parent="1">
          <mxGeometry x="400" y="-705" width="80" height="30" as="geometry" />
        </mxCell>
        <mxCell id="UxLnfqudutofeIfkHDjk-85" style="edgeStyle=orthogonalEdgeStyle;rounded=0;orthogonalLoop=1;jettySize=auto;html=1;entryX=0.5;entryY=0;entryDx=0;entryDy=0;" edge="1" parent="1" source="UxLnfqudutofeIfkHDjk-86" target="UxLnfqudutofeIfkHDjk-89">
          <mxGeometry relative="1" as="geometry" />
        </mxCell>
        <mxCell id="UxLnfqudutofeIfkHDjk-86" value="start" style="strokeWidth=2;html=1;shape=mxgraph.flowchart.terminator;whiteSpace=wrap;" vertex="1" parent="1">
          <mxGeometry x="450" y="-710" width="70" height="40" as="geometry" />
        </mxCell>
        <mxCell id="UxLnfqudutofeIfkHDjk-87" value="" style="verticalLabelPosition=bottom;verticalAlign=top;html=1;shape=card;whiteSpace=wrap;size=20;arcSize=12;" vertex="1" parent="1">
          <mxGeometry x="460" y="-635" width="50" height="40" as="geometry" />
        </mxCell>
        <mxCell id="UxLnfqudutofeIfkHDjk-88" style="edgeStyle=orthogonalEdgeStyle;rounded=0;orthogonalLoop=1;jettySize=auto;html=1;entryX=0.5;entryY=0;entryDx=0;entryDy=0;" edge="1" parent="1" source="UxLnfqudutofeIfkHDjk-89" target="UxLnfqudutofeIfkHDjk-96">
          <mxGeometry relative="1" as="geometry" />
        </mxCell>
        <mxCell id="UxLnfqudutofeIfkHDjk-89" value="a" style="text;html=1;align=center;verticalAlign=middle;whiteSpace=wrap;rounded=0;" vertex="1" parent="1">
          <mxGeometry x="455" y="-630" width="60" height="30" as="geometry" />
        </mxCell>
        <mxCell id="UxLnfqudutofeIfkHDjk-90" value="" style="shape=document;whiteSpace=wrap;html=1;boundedLbl=1;" vertex="1" parent="1">
          <mxGeometry x="460" y="-490" width="50" height="40" as="geometry" />
        </mxCell>
        <mxCell id="UxLnfqudutofeIfkHDjk-91" value="a" style="text;html=1;align=center;verticalAlign=middle;whiteSpace=wrap;rounded=0;" vertex="1" parent="1">
          <mxGeometry x="455" y="-490" width="60" height="30" as="geometry" />
        </mxCell>
        <mxCell id="UxLnfqudutofeIfkHDjk-92" value="stop" style="strokeWidth=2;html=1;shape=mxgraph.flowchart.terminator;whiteSpace=wrap;" vertex="1" parent="1">
          <mxGeometry x="450" y="-430" width="70" height="40" as="geometry" />
        </mxCell>
        <mxCell id="UxLnfqudutofeIfkHDjk-93" style="edgeStyle=orthogonalEdgeStyle;rounded=0;orthogonalLoop=1;jettySize=auto;html=1;entryX=0.5;entryY=0;entryDx=0;entryDy=0;entryPerimeter=0;" edge="1" parent="1" source="UxLnfqudutofeIfkHDjk-91" target="UxLnfqudutofeIfkHDjk-92">
          <mxGeometry relative="1" as="geometry" />
        </mxCell>
        <mxCell id="UxLnfqudutofeIfkHDjk-94" value="" style="verticalLabelPosition=bottom;verticalAlign=top;html=1;shape=card;whiteSpace=wrap;size=20;arcSize=12;" vertex="1" parent="1">
          <mxGeometry x="460" y="-565" width="50" height="40" as="geometry" />
        </mxCell>
        <mxCell id="UxLnfqudutofeIfkHDjk-95" style="edgeStyle=orthogonalEdgeStyle;rounded=0;orthogonalLoop=1;jettySize=auto;html=1;entryX=0.5;entryY=0;entryDx=0;entryDy=0;" edge="1" parent="1" source="UxLnfqudutofeIfkHDjk-96" target="UxLnfqudutofeIfkHDjk-91">
          <mxGeometry relative="1" as="geometry" />
        </mxCell>
        <mxCell id="UxLnfqudutofeIfkHDjk-96" value="b" style="text;html=1;align=center;verticalAlign=middle;whiteSpace=wrap;rounded=0;" vertex="1" parent="1">
          <mxGeometry x="455" y="-560" width="60" height="30" as="geometry" />
        </mxCell>
        <mxCell id="UxLnfqudutofeIfkHDjk-97" value="" style="endArrow=none;dashed=1;html=1;rounded=0;" edge="1" parent="1">
          <mxGeometry width="50" height="50" relative="1" as="geometry">
            <mxPoint x="560" y="-720" as="sourcePoint" />
            <mxPoint x="560" y="-360" as="targetPoint" />
          </mxGeometry>
        </mxCell>
        <mxCell id="UxLnfqudutofeIfkHDjk-98" style="edgeStyle=orthogonalEdgeStyle;rounded=0;orthogonalLoop=1;jettySize=auto;html=1;entryX=0.5;entryY=0;entryDx=0;entryDy=0;" edge="1" parent="1" source="UxLnfqudutofeIfkHDjk-99" target="UxLnfqudutofeIfkHDjk-102">
          <mxGeometry relative="1" as="geometry" />
        </mxCell>
        <mxCell id="UxLnfqudutofeIfkHDjk-99" value="start" style="strokeWidth=2;html=1;shape=mxgraph.flowchart.terminator;whiteSpace=wrap;" vertex="1" parent="1">
          <mxGeometry x="630" y="-702" width="70" height="40" as="geometry" />
        </mxCell>
        <mxCell id="UxLnfqudutofeIfkHDjk-100" value="" style="verticalLabelPosition=bottom;verticalAlign=top;html=1;shape=card;whiteSpace=wrap;size=20;arcSize=12;" vertex="1" parent="1">
          <mxGeometry x="640" y="-627" width="50" height="40" as="geometry" />
        </mxCell>
        <mxCell id="UxLnfqudutofeIfkHDjk-101" style="edgeStyle=orthogonalEdgeStyle;rounded=0;orthogonalLoop=1;jettySize=auto;html=1;entryX=0.5;entryY=0;entryDx=0;entryDy=0;" edge="1" parent="1" source="UxLnfqudutofeIfkHDjk-102" target="UxLnfqudutofeIfkHDjk-104">
          <mxGeometry relative="1" as="geometry" />
        </mxCell>
        <mxCell id="UxLnfqudutofeIfkHDjk-102" value="a" style="text;html=1;align=center;verticalAlign=middle;whiteSpace=wrap;rounded=0;" vertex="1" parent="1">
          <mxGeometry x="635" y="-622" width="60" height="30" as="geometry" />
        </mxCell>
        <mxCell id="UxLnfqudutofeIfkHDjk-103" value="" style="shape=document;whiteSpace=wrap;html=1;boundedLbl=1;" vertex="1" parent="1">
          <mxGeometry x="640" y="-567" width="50" height="40" as="geometry" />
        </mxCell>
        <mxCell id="UxLnfqudutofeIfkHDjk-104" value="a,a,a" style="text;html=1;align=center;verticalAlign=middle;whiteSpace=wrap;rounded=0;" vertex="1" parent="1">
          <mxGeometry x="635" y="-567" width="60" height="30" as="geometry" />
        </mxCell>
        <mxCell id="UxLnfqudutofeIfkHDjk-105" value="stop" style="strokeWidth=2;html=1;shape=mxgraph.flowchart.terminator;whiteSpace=wrap;" vertex="1" parent="1">
          <mxGeometry x="630" y="-507" width="70" height="40" as="geometry" />
        </mxCell>
        <mxCell id="UxLnfqudutofeIfkHDjk-106" style="edgeStyle=orthogonalEdgeStyle;rounded=0;orthogonalLoop=1;jettySize=auto;html=1;entryX=0.5;entryY=0;entryDx=0;entryDy=0;entryPerimeter=0;" edge="1" parent="1" source="UxLnfqudutofeIfkHDjk-104" target="UxLnfqudutofeIfkHDjk-105">
          <mxGeometry relative="1" as="geometry" />
        </mxCell>
        <mxCell id="UxLnfqudutofeIfkHDjk-107" value="ex.7" style="text;strokeColor=#d6b656;fillColor=#fff2cc;align=left;verticalAlign=middle;spacingLeft=4;spacingRight=4;overflow=hidden;points=[[0,0.5],[1,0.5]];portConstraint=eastwest;rotatable=0;whiteSpace=wrap;html=1;" vertex="1" parent="1">
          <mxGeometry x="570" y="-710" width="50" height="30" as="geometry" />
        </mxCell>
        <mxCell id="UxLnfqudutofeIfkHDjk-108" value="" style="endArrow=none;dashed=1;html=1;rounded=0;" edge="1" parent="1">
          <mxGeometry width="50" height="50" relative="1" as="geometry">
            <mxPoint x="560" y="-440" as="sourcePoint" />
            <mxPoint x="740" y="-440" as="targetPoint" />
          </mxGeometry>
        </mxCell>
        <mxCell id="UxLnfqudutofeIfkHDjk-109" value="ex.8" style="text;strokeColor=#d6b656;fillColor=#fff2cc;align=left;verticalAlign=middle;spacingLeft=4;spacingRight=4;overflow=hidden;points=[[0,0.5],[1,0.5]];portConstraint=eastwest;rotatable=0;whiteSpace=wrap;html=1;" vertex="1" parent="1">
          <mxGeometry x="570" y="-430" width="80" height="30" as="geometry" />
        </mxCell>
        <mxCell id="UxLnfqudutofeIfkHDjk-110" value="x , 32" style="rounded=1;whiteSpace=wrap;html=1;" vertex="1" parent="1">
          <mxGeometry x="625" y="-430" width="80" height="30" as="geometry" />
        </mxCell>
        <mxCell id="UxLnfqudutofeIfkHDjk-111" value="1 , 32" style="rounded=1;whiteSpace=wrap;html=1;" vertex="1" parent="1">
          <mxGeometry x="625" y="-400" width="80" height="30" as="geometry" />
        </mxCell>
        <mxCell id="UxLnfqudutofeIfkHDjk-112" value="" style="endArrow=none;dashed=1;html=1;rounded=0;" edge="1" parent="1">
          <mxGeometry width="50" height="50" relative="1" as="geometry">
            <mxPoint x="50" y="-360" as="sourcePoint" />
            <mxPoint x="751.5999755859375" y="-360" as="targetPoint" />
          </mxGeometry>
        </mxCell>
        <mxCell id="UxLnfqudutofeIfkHDjk-113" value="&lt;font style=&quot;font-size: 23px;&quot;&gt;&lt;b&gt;page 15&lt;/b&gt;&lt;/font&gt;" style="text;html=1;align=center;verticalAlign=middle;whiteSpace=wrap;rounded=0;fillColor=#e1d5e7;strokeColor=#9673a6;" vertex="1" parent="1">
          <mxGeometry x="30" y="-340" width="100" height="30" as="geometry" />
        </mxCell>
        <mxCell id="UxLnfqudutofeIfkHDjk-114" value="ex.1" style="text;strokeColor=#d6b656;fillColor=#fff2cc;align=left;verticalAlign=middle;spacingLeft=4;spacingRight=4;overflow=hidden;points=[[0,0.5],[1,0.5]];portConstraint=eastwest;rotatable=0;whiteSpace=wrap;html=1;" vertex="1" parent="1">
          <mxGeometry x="50" y="-290" width="80" height="30" as="geometry" />
        </mxCell>
        <mxCell id="UxLnfqudutofeIfkHDjk-115" value="start" style="strokeWidth=2;html=1;shape=mxgraph.flowchart.terminator;whiteSpace=wrap;" vertex="1" parent="1">
          <mxGeometry x="125" y="-240" width="70" height="40" as="geometry" />
        </mxCell>
        <mxCell id="UxLnfqudutofeIfkHDjk-125" style="edgeStyle=orthogonalEdgeStyle;rounded=0;orthogonalLoop=1;jettySize=auto;html=1;entryX=0.5;entryY=0;entryDx=0;entryDy=0;" edge="1" parent="1" source="UxLnfqudutofeIfkHDjk-116" target="UxLnfqudutofeIfkHDjk-118">
          <mxGeometry relative="1" as="geometry" />
        </mxCell>
        <mxCell id="UxLnfqudutofeIfkHDjk-116" value="" style="verticalLabelPosition=bottom;verticalAlign=top;html=1;shape=card;whiteSpace=wrap;size=20;arcSize=12;" vertex="1" parent="1">
          <mxGeometry x="105" y="-160" width="110" height="40" as="geometry" />
        </mxCell>
        <mxCell id="UxLnfqudutofeIfkHDjk-117" value="a, b, c" style="text;html=1;align=center;verticalAlign=middle;whiteSpace=wrap;rounded=0;" vertex="1" parent="1">
          <mxGeometry x="125" y="-155" width="60" height="30" as="geometry" />
        </mxCell>
        <mxCell id="UxLnfqudutofeIfkHDjk-126" value="" style="edgeStyle=orthogonalEdgeStyle;rounded=0;orthogonalLoop=1;jettySize=auto;html=1;" edge="1" parent="1" source="UxLnfqudutofeIfkHDjk-118" target="UxLnfqudutofeIfkHDjk-119">
          <mxGeometry relative="1" as="geometry" />
        </mxCell>
        <mxCell id="UxLnfqudutofeIfkHDjk-118" value="sum = a+b+c&lt;br&gt;avg=sum/3" style="rounded=0;whiteSpace=wrap;html=1;" vertex="1" parent="1">
          <mxGeometry x="100" y="-80" width="120" height="60" as="geometry" />
        </mxCell>
        <mxCell id="UxLnfqudutofeIfkHDjk-127" value="" style="edgeStyle=orthogonalEdgeStyle;rounded=0;orthogonalLoop=1;jettySize=auto;html=1;" edge="1" parent="1" source="UxLnfqudutofeIfkHDjk-119" target="UxLnfqudutofeIfkHDjk-121">
          <mxGeometry relative="1" as="geometry" />
        </mxCell>
        <mxCell id="UxLnfqudutofeIfkHDjk-119" value="" style="shape=document;whiteSpace=wrap;html=1;boundedLbl=1;" vertex="1" parent="1">
          <mxGeometry x="111.25" y="25" width="97.5" height="70" as="geometry" />
        </mxCell>
        <mxCell id="UxLnfqudutofeIfkHDjk-120" value="&quot;sum = &quot; + sum&lt;br&gt;&quot;avg =&quot; + avg" style="text;html=1;align=center;verticalAlign=middle;whiteSpace=wrap;rounded=0;" vertex="1" parent="1">
          <mxGeometry x="108.75" y="30" width="100" height="40" as="geometry" />
        </mxCell>
        <mxCell id="UxLnfqudutofeIfkHDjk-121" value="stop" style="strokeWidth=2;html=1;shape=mxgraph.flowchart.terminator;whiteSpace=wrap;" vertex="1" parent="1">
          <mxGeometry x="125" y="140" width="70" height="40" as="geometry" />
        </mxCell>
        <mxCell id="UxLnfqudutofeIfkHDjk-124" style="edgeStyle=orthogonalEdgeStyle;rounded=0;orthogonalLoop=1;jettySize=auto;html=1;entryX=0.5;entryY=0;entryDx=0;entryDy=0;entryPerimeter=0;" edge="1" parent="1" source="UxLnfqudutofeIfkHDjk-115" target="UxLnfqudutofeIfkHDjk-116">
          <mxGeometry relative="1" as="geometry" />
        </mxCell>
        <mxCell id="UxLnfqudutofeIfkHDjk-129" value="" style="endArrow=none;dashed=1;html=1;rounded=0;" edge="1" parent="1">
          <mxGeometry width="50" height="50" relative="1" as="geometry">
            <mxPoint x="278" y="-320" as="sourcePoint" />
            <mxPoint x="278" y="210" as="targetPoint" />
          </mxGeometry>
        </mxCell>
        <mxCell id="UxLnfqudutofeIfkHDjk-130" value="start" style="strokeWidth=2;html=1;shape=mxgraph.flowchart.terminator;whiteSpace=wrap;" vertex="1" parent="1">
          <mxGeometry x="370" y="-240" width="70" height="40" as="geometry" />
        </mxCell>
        <mxCell id="UxLnfqudutofeIfkHDjk-131" style="edgeStyle=orthogonalEdgeStyle;rounded=0;orthogonalLoop=1;jettySize=auto;html=1;entryX=0.5;entryY=0;entryDx=0;entryDy=0;" edge="1" parent="1" source="UxLnfqudutofeIfkHDjk-132" target="UxLnfqudutofeIfkHDjk-135">
          <mxGeometry relative="1" as="geometry" />
        </mxCell>
        <mxCell id="UxLnfqudutofeIfkHDjk-132" value="" style="verticalLabelPosition=bottom;verticalAlign=top;html=1;shape=card;whiteSpace=wrap;size=20;arcSize=12;" vertex="1" parent="1">
          <mxGeometry x="350" y="-160" width="110" height="40" as="geometry" />
        </mxCell>
        <mxCell id="UxLnfqudutofeIfkHDjk-133" value="a, b" style="text;html=1;align=center;verticalAlign=middle;whiteSpace=wrap;rounded=0;" vertex="1" parent="1">
          <mxGeometry x="370" y="-155" width="60" height="30" as="geometry" />
        </mxCell>
        <mxCell id="UxLnfqudutofeIfkHDjk-134" value="" style="edgeStyle=orthogonalEdgeStyle;rounded=0;orthogonalLoop=1;jettySize=auto;html=1;" edge="1" parent="1" source="UxLnfqudutofeIfkHDjk-135" target="UxLnfqudutofeIfkHDjk-137">
          <mxGeometry relative="1" as="geometry" />
        </mxCell>
        <mxCell id="UxLnfqudutofeIfkHDjk-135" value="S = a*b&lt;br&gt;H = 2*a + 2*b" style="rounded=0;whiteSpace=wrap;html=1;" vertex="1" parent="1">
          <mxGeometry x="345" y="-80" width="120" height="60" as="geometry" />
        </mxCell>
        <mxCell id="UxLnfqudutofeIfkHDjk-136" value="" style="edgeStyle=orthogonalEdgeStyle;rounded=0;orthogonalLoop=1;jettySize=auto;html=1;" edge="1" parent="1" source="UxLnfqudutofeIfkHDjk-137" target="UxLnfqudutofeIfkHDjk-139">
          <mxGeometry relative="1" as="geometry" />
        </mxCell>
        <mxCell id="UxLnfqudutofeIfkHDjk-137" value="" style="shape=document;whiteSpace=wrap;html=1;boundedLbl=1;" vertex="1" parent="1">
          <mxGeometry x="356.25" y="25" width="97.5" height="70" as="geometry" />
        </mxCell>
        <mxCell id="UxLnfqudutofeIfkHDjk-138" value="&quot;area =&quot;&amp;nbsp; + S&lt;br&gt;&quot;scope =&quot; + H" style="text;html=1;align=center;verticalAlign=middle;whiteSpace=wrap;rounded=0;" vertex="1" parent="1">
          <mxGeometry x="353.75" y="30" width="100" height="40" as="geometry" />
        </mxCell>
        <mxCell id="UxLnfqudutofeIfkHDjk-139" value="stop" style="strokeWidth=2;html=1;shape=mxgraph.flowchart.terminator;whiteSpace=wrap;" vertex="1" parent="1">
          <mxGeometry x="370" y="140" width="70" height="40" as="geometry" />
        </mxCell>
        <mxCell id="UxLnfqudutofeIfkHDjk-140" style="edgeStyle=orthogonalEdgeStyle;rounded=0;orthogonalLoop=1;jettySize=auto;html=1;entryX=0.5;entryY=0;entryDx=0;entryDy=0;entryPerimeter=0;" edge="1" parent="1" source="UxLnfqudutofeIfkHDjk-130" target="UxLnfqudutofeIfkHDjk-132">
          <mxGeometry relative="1" as="geometry" />
        </mxCell>
        <mxCell id="UxLnfqudutofeIfkHDjk-141" value="ex.2" style="text;strokeColor=#d6b656;fillColor=#fff2cc;align=left;verticalAlign=middle;spacingLeft=4;spacingRight=4;overflow=hidden;points=[[0,0.5],[1,0.5]];portConstraint=eastwest;rotatable=0;whiteSpace=wrap;html=1;" vertex="1" parent="1">
          <mxGeometry x="310" y="-290" width="80" height="30" as="geometry" />
        </mxCell>
        <mxCell id="UxLnfqudutofeIfkHDjk-142" value="" style="endArrow=none;dashed=1;html=1;rounded=0;" edge="1" parent="1">
          <mxGeometry width="50" height="50" relative="1" as="geometry">
            <mxPoint x="518" y="-320" as="sourcePoint" />
            <mxPoint x="518" y="210" as="targetPoint" />
          </mxGeometry>
        </mxCell>
        <mxCell id="UxLnfqudutofeIfkHDjk-143" value="start" style="strokeWidth=2;html=1;shape=mxgraph.flowchart.terminator;whiteSpace=wrap;" vertex="1" parent="1">
          <mxGeometry x="610" y="-240" width="70" height="40" as="geometry" />
        </mxCell>
        <mxCell id="UxLnfqudutofeIfkHDjk-144" style="edgeStyle=orthogonalEdgeStyle;rounded=0;orthogonalLoop=1;jettySize=auto;html=1;entryX=0.5;entryY=0;entryDx=0;entryDy=0;" edge="1" parent="1" source="UxLnfqudutofeIfkHDjk-145" target="UxLnfqudutofeIfkHDjk-148">
          <mxGeometry relative="1" as="geometry" />
        </mxCell>
        <mxCell id="UxLnfqudutofeIfkHDjk-145" value="" style="verticalLabelPosition=bottom;verticalAlign=top;html=1;shape=card;whiteSpace=wrap;size=20;arcSize=12;" vertex="1" parent="1">
          <mxGeometry x="590" y="-160" width="110" height="40" as="geometry" />
        </mxCell>
        <mxCell id="UxLnfqudutofeIfkHDjk-146" value="qoter , deep" style="text;html=1;align=center;verticalAlign=middle;whiteSpace=wrap;rounded=0;" vertex="1" parent="1">
          <mxGeometry x="610" y="-155" width="60" height="30" as="geometry" />
        </mxCell>
        <mxCell id="UxLnfqudutofeIfkHDjk-147" value="" style="edgeStyle=orthogonalEdgeStyle;rounded=0;orthogonalLoop=1;jettySize=auto;html=1;" edge="1" parent="1" source="UxLnfqudutofeIfkHDjk-148" target="UxLnfqudutofeIfkHDjk-150">
          <mxGeometry relative="1" as="geometry" />
        </mxCell>
        <mxCell id="UxLnfqudutofeIfkHDjk-148" value="R=qoter/2&lt;br&gt;V=3.14*R*R*deep" style="rounded=0;whiteSpace=wrap;html=1;" vertex="1" parent="1">
          <mxGeometry x="585" y="-80" width="120" height="60" as="geometry" />
        </mxCell>
        <mxCell id="UxLnfqudutofeIfkHDjk-149" value="" style="edgeStyle=orthogonalEdgeStyle;rounded=0;orthogonalLoop=1;jettySize=auto;html=1;" edge="1" parent="1" source="UxLnfqudutofeIfkHDjk-150" target="UxLnfqudutofeIfkHDjk-152">
          <mxGeometry relative="1" as="geometry" />
        </mxCell>
        <mxCell id="UxLnfqudutofeIfkHDjk-150" value="" style="shape=document;whiteSpace=wrap;html=1;boundedLbl=1;" vertex="1" parent="1">
          <mxGeometry x="603.13" y="25" width="83.75" height="55" as="geometry" />
        </mxCell>
        <mxCell id="UxLnfqudutofeIfkHDjk-151" value="V" style="text;html=1;align=center;verticalAlign=middle;whiteSpace=wrap;rounded=0;" vertex="1" parent="1">
          <mxGeometry x="595" y="30" width="100" height="40" as="geometry" />
        </mxCell>
        <mxCell id="UxLnfqudutofeIfkHDjk-152" value="stop" style="strokeWidth=2;html=1;shape=mxgraph.flowchart.terminator;whiteSpace=wrap;" vertex="1" parent="1">
          <mxGeometry x="610" y="140" width="70" height="40" as="geometry" />
        </mxCell>
        <mxCell id="UxLnfqudutofeIfkHDjk-153" style="edgeStyle=orthogonalEdgeStyle;rounded=0;orthogonalLoop=1;jettySize=auto;html=1;entryX=0.5;entryY=0;entryDx=0;entryDy=0;entryPerimeter=0;" edge="1" parent="1" source="UxLnfqudutofeIfkHDjk-143" target="UxLnfqudutofeIfkHDjk-145">
          <mxGeometry relative="1" as="geometry" />
        </mxCell>
        <mxCell id="UxLnfqudutofeIfkHDjk-154" value="ex.3" style="text;strokeColor=#d6b656;fillColor=#fff2cc;align=left;verticalAlign=middle;spacingLeft=4;spacingRight=4;overflow=hidden;points=[[0,0.5],[1,0.5]];portConstraint=eastwest;rotatable=0;whiteSpace=wrap;html=1;" vertex="1" parent="1">
          <mxGeometry x="550" y="-290" width="80" height="30" as="geometry" />
        </mxCell>
        <mxCell id="UxLnfqudutofeIfkHDjk-155" value="" style="endArrow=none;dashed=1;html=1;rounded=0;" edge="1" parent="1">
          <mxGeometry width="50" height="50" relative="1" as="geometry">
            <mxPoint x="50" y="210" as="sourcePoint" />
            <mxPoint x="751.5999755859375" y="210" as="targetPoint" />
          </mxGeometry>
        </mxCell>
        <mxCell id="UxLnfqudutofeIfkHDjk-156" value="&lt;font style=&quot;font-size: 23px;&quot;&gt;&lt;b&gt;page 18&lt;/b&gt;&lt;/font&gt;" style="text;html=1;align=center;verticalAlign=middle;whiteSpace=wrap;rounded=0;fillColor=#e1d5e7;strokeColor=#9673a6;" vertex="1" parent="1">
          <mxGeometry x="30" y="240" width="100" height="30" as="geometry" />
        </mxCell>
        <mxCell id="UxLnfqudutofeIfkHDjk-157" value="ex.1" style="text;strokeColor=#d6b656;fillColor=#fff2cc;align=left;verticalAlign=middle;spacingLeft=4;spacingRight=4;overflow=hidden;points=[[0,0.5],[1,0.5]];portConstraint=eastwest;rotatable=0;whiteSpace=wrap;html=1;" vertex="1" parent="1">
          <mxGeometry x="40" y="290" width="80" height="30" as="geometry" />
        </mxCell>
        <mxCell id="UxLnfqudutofeIfkHDjk-158" value="start" style="strokeWidth=2;html=1;shape=mxgraph.flowchart.terminator;whiteSpace=wrap;" vertex="1" parent="1">
          <mxGeometry x="148.13" y="310" width="93.75" height="60" as="geometry" />
        </mxCell>
        <mxCell id="UxLnfqudutofeIfkHDjk-169" style="edgeStyle=orthogonalEdgeStyle;rounded=0;orthogonalLoop=1;jettySize=auto;html=1;entryX=0.5;entryY=0;entryDx=0;entryDy=0;" edge="1" parent="1" source="UxLnfqudutofeIfkHDjk-159" target="UxLnfqudutofeIfkHDjk-161">
          <mxGeometry relative="1" as="geometry" />
        </mxCell>
        <mxCell id="UxLnfqudutofeIfkHDjk-159" value="" style="verticalLabelPosition=bottom;verticalAlign=top;html=1;shape=card;whiteSpace=wrap;size=20;arcSize=12;" vertex="1" parent="1">
          <mxGeometry x="145" y="400" width="100" height="60" as="geometry" />
        </mxCell>
        <mxCell id="UxLnfqudutofeIfkHDjk-160" value="num1,&lt;br&gt;num2" style="text;html=1;align=center;verticalAlign=middle;whiteSpace=wrap;rounded=0;" vertex="1" parent="1">
          <mxGeometry x="165.01" y="415" width="60" height="30" as="geometry" />
        </mxCell>
        <mxCell id="UxLnfqudutofeIfkHDjk-172" style="edgeStyle=orthogonalEdgeStyle;rounded=0;orthogonalLoop=1;jettySize=auto;html=1;entryX=0.5;entryY=0;entryDx=0;entryDy=0;" edge="1" parent="1" source="UxLnfqudutofeIfkHDjk-161" target="UxLnfqudutofeIfkHDjk-162">
          <mxGeometry relative="1" as="geometry">
            <Array as="points">
              <mxPoint x="90" y="555" />
            </Array>
          </mxGeometry>
        </mxCell>
        <mxCell id="UxLnfqudutofeIfkHDjk-178" style="edgeStyle=orthogonalEdgeStyle;rounded=0;orthogonalLoop=1;jettySize=auto;html=1;entryX=0.5;entryY=0;entryDx=0;entryDy=0;exitX=1;exitY=0.5;exitDx=0;exitDy=0;" edge="1" parent="1" source="UxLnfqudutofeIfkHDjk-161" target="UxLnfqudutofeIfkHDjk-163">
          <mxGeometry relative="1" as="geometry">
            <Array as="points">
              <mxPoint x="296" y="555" />
            </Array>
          </mxGeometry>
        </mxCell>
        <mxCell id="UxLnfqudutofeIfkHDjk-161" value="num2&amp;gt;num1" style="rhombus;whiteSpace=wrap;html=1;" vertex="1" parent="1">
          <mxGeometry x="148.13" y="505" width="93.75" height="100" as="geometry" />
        </mxCell>
        <mxCell id="UxLnfqudutofeIfkHDjk-162" value="" style="shape=document;whiteSpace=wrap;html=1;boundedLbl=1;" vertex="1" parent="1">
          <mxGeometry x="30" y="595" width="120" height="80" as="geometry" />
        </mxCell>
        <mxCell id="UxLnfqudutofeIfkHDjk-163" value="" style="shape=document;whiteSpace=wrap;html=1;boundedLbl=1;" vertex="1" parent="1">
          <mxGeometry x="236.25" y="595" width="120" height="80" as="geometry" />
        </mxCell>
        <mxCell id="UxLnfqudutofeIfkHDjk-165" value="&quot;Growing...&quot;" style="text;html=1;align=center;verticalAlign=middle;whiteSpace=wrap;rounded=0;" vertex="1" parent="1">
          <mxGeometry x="50" y="610" width="60" height="30" as="geometry" />
        </mxCell>
        <mxCell id="UxLnfqudutofeIfkHDjk-167" value="&quot;Not Growing...&quot;" style="text;html=1;align=center;verticalAlign=middle;whiteSpace=wrap;rounded=0;" vertex="1" parent="1">
          <mxGeometry x="250" y="610" width="100" height="30" as="geometry" />
        </mxCell>
        <mxCell id="UxLnfqudutofeIfkHDjk-168" style="edgeStyle=orthogonalEdgeStyle;rounded=0;orthogonalLoop=1;jettySize=auto;html=1;entryX=0.5;entryY=0;entryDx=0;entryDy=0;entryPerimeter=0;" edge="1" parent="1" source="UxLnfqudutofeIfkHDjk-158" target="UxLnfqudutofeIfkHDjk-159">
          <mxGeometry relative="1" as="geometry" />
        </mxCell>
        <mxCell id="UxLnfqudutofeIfkHDjk-174" value="stop" style="strokeWidth=2;html=1;shape=mxgraph.flowchart.terminator;whiteSpace=wrap;" vertex="1" parent="1">
          <mxGeometry x="145" y="740" width="95" height="60" as="geometry" />
        </mxCell>
        <mxCell id="UxLnfqudutofeIfkHDjk-176" style="edgeStyle=orthogonalEdgeStyle;rounded=0;orthogonalLoop=1;jettySize=auto;html=1;entryX=0.5;entryY=0;entryDx=0;entryDy=0;entryPerimeter=0;" edge="1" parent="1" source="UxLnfqudutofeIfkHDjk-163" target="UxLnfqudutofeIfkHDjk-174">
          <mxGeometry relative="1" as="geometry">
            <Array as="points">
              <mxPoint x="296" y="720" />
              <mxPoint x="193" y="720" />
            </Array>
          </mxGeometry>
        </mxCell>
        <mxCell id="UxLnfqudutofeIfkHDjk-177" style="edgeStyle=orthogonalEdgeStyle;rounded=0;orthogonalLoop=1;jettySize=auto;html=1;" edge="1" parent="1" source="UxLnfqudutofeIfkHDjk-162" target="UxLnfqudutofeIfkHDjk-174">
          <mxGeometry relative="1" as="geometry">
            <Array as="points">
              <mxPoint x="90" y="720" />
              <mxPoint x="192" y="720" />
            </Array>
          </mxGeometry>
        </mxCell>
        <mxCell id="UxLnfqudutofeIfkHDjk-179" value="" style="endArrow=none;dashed=1;html=1;rounded=0;" edge="1" parent="1">
          <mxGeometry width="50" height="50" relative="1" as="geometry">
            <mxPoint x="380" y="270" as="sourcePoint" />
            <mxPoint x="380" y="840" as="targetPoint" />
          </mxGeometry>
        </mxCell>
        <mxCell id="UxLnfqudutofeIfkHDjk-180" value="ex.2" style="text;strokeColor=#d6b656;fillColor=#fff2cc;align=left;verticalAlign=middle;spacingLeft=4;spacingRight=4;overflow=hidden;points=[[0,0.5],[1,0.5]];portConstraint=eastwest;rotatable=0;whiteSpace=wrap;html=1;" vertex="1" parent="1">
          <mxGeometry x="414" y="290" width="80" height="30" as="geometry" />
        </mxCell>
        <mxCell id="UxLnfqudutofeIfkHDjk-181" value="start" style="strokeWidth=2;html=1;shape=mxgraph.flowchart.terminator;whiteSpace=wrap;" vertex="1" parent="1">
          <mxGeometry x="545.01" y="310" width="93.75" height="60" as="geometry" />
        </mxCell>
        <mxCell id="UxLnfqudutofeIfkHDjk-182" style="edgeStyle=orthogonalEdgeStyle;rounded=0;orthogonalLoop=1;jettySize=auto;html=1;entryX=0.5;entryY=0;entryDx=0;entryDy=0;" edge="1" parent="1" source="UxLnfqudutofeIfkHDjk-183" target="UxLnfqudutofeIfkHDjk-187">
          <mxGeometry relative="1" as="geometry" />
        </mxCell>
        <mxCell id="UxLnfqudutofeIfkHDjk-183" value="" style="verticalLabelPosition=bottom;verticalAlign=top;html=1;shape=card;whiteSpace=wrap;size=20;arcSize=12;" vertex="1" parent="1">
          <mxGeometry x="541.88" y="400" width="100" height="60" as="geometry" />
        </mxCell>
        <mxCell id="UxLnfqudutofeIfkHDjk-184" value="num1,&lt;br&gt;num2" style="text;html=1;align=center;verticalAlign=middle;whiteSpace=wrap;rounded=0;" vertex="1" parent="1">
          <mxGeometry x="561.89" y="415" width="60" height="30" as="geometry" />
        </mxCell>
        <mxCell id="UxLnfqudutofeIfkHDjk-185" style="edgeStyle=orthogonalEdgeStyle;rounded=0;orthogonalLoop=1;jettySize=auto;html=1;entryX=0.5;entryY=0;entryDx=0;entryDy=0;" edge="1" parent="1" source="UxLnfqudutofeIfkHDjk-187" target="UxLnfqudutofeIfkHDjk-188">
          <mxGeometry relative="1" as="geometry">
            <Array as="points">
              <mxPoint x="486.88" y="555" />
            </Array>
          </mxGeometry>
        </mxCell>
        <mxCell id="UxLnfqudutofeIfkHDjk-186" style="edgeStyle=orthogonalEdgeStyle;rounded=0;orthogonalLoop=1;jettySize=auto;html=1;entryX=0.5;entryY=0;entryDx=0;entryDy=0;exitX=1;exitY=0.5;exitDx=0;exitDy=0;" edge="1" parent="1" source="UxLnfqudutofeIfkHDjk-187" target="UxLnfqudutofeIfkHDjk-189">
          <mxGeometry relative="1" as="geometry">
            <Array as="points">
              <mxPoint x="692.88" y="555" />
            </Array>
          </mxGeometry>
        </mxCell>
        <mxCell id="UxLnfqudutofeIfkHDjk-187" value="num2&amp;gt;num1" style="rhombus;whiteSpace=wrap;html=1;" vertex="1" parent="1">
          <mxGeometry x="545.01" y="505" width="93.75" height="100" as="geometry" />
        </mxCell>
        <mxCell id="UxLnfqudutofeIfkHDjk-188" value="" style="shape=document;whiteSpace=wrap;html=1;boundedLbl=1;" vertex="1" parent="1">
          <mxGeometry x="426.88" y="595" width="120" height="80" as="geometry" />
        </mxCell>
        <mxCell id="UxLnfqudutofeIfkHDjk-189" value="" style="shape=document;whiteSpace=wrap;html=1;boundedLbl=1;" vertex="1" parent="1">
          <mxGeometry x="633.13" y="595" width="120" height="80" as="geometry" />
        </mxCell>
        <mxCell id="UxLnfqudutofeIfkHDjk-191" value="num1" style="text;html=1;align=center;verticalAlign=middle;whiteSpace=wrap;rounded=0;" vertex="1" parent="1">
          <mxGeometry x="646.88" y="610" width="100" height="30" as="geometry" />
        </mxCell>
        <mxCell id="UxLnfqudutofeIfkHDjk-192" style="edgeStyle=orthogonalEdgeStyle;rounded=0;orthogonalLoop=1;jettySize=auto;html=1;entryX=0.5;entryY=0;entryDx=0;entryDy=0;entryPerimeter=0;" edge="1" parent="1" source="UxLnfqudutofeIfkHDjk-181" target="UxLnfqudutofeIfkHDjk-183">
          <mxGeometry relative="1" as="geometry" />
        </mxCell>
        <mxCell id="UxLnfqudutofeIfkHDjk-193" value="stop" style="strokeWidth=2;html=1;shape=mxgraph.flowchart.terminator;whiteSpace=wrap;" vertex="1" parent="1">
          <mxGeometry x="541.88" y="740" width="95" height="60" as="geometry" />
        </mxCell>
        <mxCell id="UxLnfqudutofeIfkHDjk-194" style="edgeStyle=orthogonalEdgeStyle;rounded=0;orthogonalLoop=1;jettySize=auto;html=1;entryX=0.5;entryY=0;entryDx=0;entryDy=0;entryPerimeter=0;" edge="1" parent="1" source="UxLnfqudutofeIfkHDjk-189" target="UxLnfqudutofeIfkHDjk-193">
          <mxGeometry relative="1" as="geometry">
            <Array as="points">
              <mxPoint x="692.88" y="720" />
              <mxPoint x="589.88" y="720" />
            </Array>
          </mxGeometry>
        </mxCell>
        <mxCell id="UxLnfqudutofeIfkHDjk-195" style="edgeStyle=orthogonalEdgeStyle;rounded=0;orthogonalLoop=1;jettySize=auto;html=1;" edge="1" parent="1" source="UxLnfqudutofeIfkHDjk-188" target="UxLnfqudutofeIfkHDjk-193">
          <mxGeometry relative="1" as="geometry">
            <Array as="points">
              <mxPoint x="486.88" y="720" />
              <mxPoint x="588.88" y="720" />
            </Array>
          </mxGeometry>
        </mxCell>
        <mxCell id="UxLnfqudutofeIfkHDjk-196" value="num2" style="text;html=1;align=center;verticalAlign=middle;whiteSpace=wrap;rounded=0;" vertex="1" parent="1">
          <mxGeometry x="456.88" y="610" width="60" height="30" as="geometry" />
        </mxCell>
        <mxCell id="UxLnfqudutofeIfkHDjk-197" value="" style="endArrow=none;dashed=1;html=1;rounded=0;" edge="1" parent="1">
          <mxGeometry width="50" height="50" relative="1" as="geometry">
            <mxPoint x="45.28" y="850" as="sourcePoint" />
            <mxPoint x="746.8799755859375" y="850" as="targetPoint" />
          </mxGeometry>
        </mxCell>
        <mxCell id="UxLnfqudutofeIfkHDjk-198" value="ex.3" style="text;strokeColor=#d6b656;fillColor=#fff2cc;align=left;verticalAlign=middle;spacingLeft=4;spacingRight=4;overflow=hidden;points=[[0,0.5],[1,0.5]];portConstraint=eastwest;rotatable=0;whiteSpace=wrap;html=1;" vertex="1" parent="1">
          <mxGeometry x="50" y="870" width="80" height="30" as="geometry" />
        </mxCell>
        <mxCell id="UxLnfqudutofeIfkHDjk-199" value="start" style="strokeWidth=2;html=1;shape=mxgraph.flowchart.terminator;whiteSpace=wrap;" vertex="1" parent="1">
          <mxGeometry x="333.76" y="880" width="93.75" height="60" as="geometry" />
        </mxCell>
        <mxCell id="UxLnfqudutofeIfkHDjk-200" style="edgeStyle=orthogonalEdgeStyle;rounded=0;orthogonalLoop=1;jettySize=auto;html=1;entryX=0.5;entryY=0;entryDx=0;entryDy=0;" edge="1" parent="1" source="UxLnfqudutofeIfkHDjk-201" target="UxLnfqudutofeIfkHDjk-205">
          <mxGeometry relative="1" as="geometry" />
        </mxCell>
        <mxCell id="UxLnfqudutofeIfkHDjk-201" value="" style="verticalLabelPosition=bottom;verticalAlign=top;html=1;shape=card;whiteSpace=wrap;size=20;arcSize=12;" vertex="1" parent="1">
          <mxGeometry x="330.63" y="970" width="100" height="60" as="geometry" />
        </mxCell>
        <mxCell id="UxLnfqudutofeIfkHDjk-202" value="num1" style="text;html=1;align=center;verticalAlign=middle;whiteSpace=wrap;rounded=0;" vertex="1" parent="1">
          <mxGeometry x="350.64" y="985" width="60" height="30" as="geometry" />
        </mxCell>
        <mxCell id="UxLnfqudutofeIfkHDjk-203" style="edgeStyle=orthogonalEdgeStyle;rounded=0;orthogonalLoop=1;jettySize=auto;html=1;entryX=0.5;entryY=0;entryDx=0;entryDy=0;" edge="1" parent="1" source="UxLnfqudutofeIfkHDjk-205" target="UxLnfqudutofeIfkHDjk-206">
          <mxGeometry relative="1" as="geometry">
            <Array as="points">
              <mxPoint x="275.63" y="1125" />
            </Array>
          </mxGeometry>
        </mxCell>
        <mxCell id="UxLnfqudutofeIfkHDjk-204" style="edgeStyle=orthogonalEdgeStyle;rounded=0;orthogonalLoop=1;jettySize=auto;html=1;entryX=0.5;entryY=0;entryDx=0;entryDy=0;exitX=1;exitY=0.5;exitDx=0;exitDy=0;" edge="1" parent="1" source="UxLnfqudutofeIfkHDjk-205" target="UxLnfqudutofeIfkHDjk-207">
          <mxGeometry relative="1" as="geometry">
            <Array as="points">
              <mxPoint x="481.63" y="1125" />
            </Array>
          </mxGeometry>
        </mxCell>
        <mxCell id="UxLnfqudutofeIfkHDjk-205" value="num1%2==0" style="rhombus;whiteSpace=wrap;html=1;" vertex="1" parent="1">
          <mxGeometry x="333.76" y="1075" width="93.75" height="100" as="geometry" />
        </mxCell>
        <mxCell id="UxLnfqudutofeIfkHDjk-206" value="" style="shape=document;whiteSpace=wrap;html=1;boundedLbl=1;" vertex="1" parent="1">
          <mxGeometry x="215.63" y="1165" width="120" height="80" as="geometry" />
        </mxCell>
        <mxCell id="UxLnfqudutofeIfkHDjk-207" value="" style="shape=document;whiteSpace=wrap;html=1;boundedLbl=1;" vertex="1" parent="1">
          <mxGeometry x="421.88" y="1165" width="120" height="80" as="geometry" />
        </mxCell>
        <mxCell id="UxLnfqudutofeIfkHDjk-208" value="&quot;Odd&quot;" style="text;html=1;align=center;verticalAlign=middle;whiteSpace=wrap;rounded=0;" vertex="1" parent="1">
          <mxGeometry x="435.63" y="1180" width="100" height="30" as="geometry" />
        </mxCell>
        <mxCell id="UxLnfqudutofeIfkHDjk-209" style="edgeStyle=orthogonalEdgeStyle;rounded=0;orthogonalLoop=1;jettySize=auto;html=1;entryX=0.5;entryY=0;entryDx=0;entryDy=0;entryPerimeter=0;" edge="1" parent="1" source="UxLnfqudutofeIfkHDjk-199" target="UxLnfqudutofeIfkHDjk-201">
          <mxGeometry relative="1" as="geometry" />
        </mxCell>
        <mxCell id="UxLnfqudutofeIfkHDjk-210" value="stop" style="strokeWidth=2;html=1;shape=mxgraph.flowchart.terminator;whiteSpace=wrap;" vertex="1" parent="1">
          <mxGeometry x="330.63" y="1310" width="95" height="60" as="geometry" />
        </mxCell>
        <mxCell id="UxLnfqudutofeIfkHDjk-211" style="edgeStyle=orthogonalEdgeStyle;rounded=0;orthogonalLoop=1;jettySize=auto;html=1;entryX=0.5;entryY=0;entryDx=0;entryDy=0;entryPerimeter=0;" edge="1" parent="1" source="UxLnfqudutofeIfkHDjk-207" target="UxLnfqudutofeIfkHDjk-210">
          <mxGeometry relative="1" as="geometry">
            <Array as="points">
              <mxPoint x="481.63" y="1290" />
              <mxPoint x="378.63" y="1290" />
            </Array>
          </mxGeometry>
        </mxCell>
        <mxCell id="UxLnfqudutofeIfkHDjk-212" style="edgeStyle=orthogonalEdgeStyle;rounded=0;orthogonalLoop=1;jettySize=auto;html=1;" edge="1" parent="1" source="UxLnfqudutofeIfkHDjk-206" target="UxLnfqudutofeIfkHDjk-210">
          <mxGeometry relative="1" as="geometry">
            <Array as="points">
              <mxPoint x="275.63" y="1290" />
              <mxPoint x="377.63" y="1290" />
            </Array>
          </mxGeometry>
        </mxCell>
        <mxCell id="UxLnfqudutofeIfkHDjk-214" value="&quot;Even&quot;" style="text;html=1;align=center;verticalAlign=middle;whiteSpace=wrap;rounded=0;" vertex="1" parent="1">
          <mxGeometry x="245.63" y="1180" width="60" height="30" as="geometry" />
        </mxCell>
      </root>
    </mxGraphModel>
  </diagram>
</mxfile>
